<svg xmlns="http://www.w3.org/2000/svg" xmlns:xlink="http://www.w3.org/1999/xlink" viewBox="0 0 64 64"><defs><style>.cls-1{fill:url(#linear-gradient);}.cls-2{fill:url(#linear-gradient-2);}.cls-3{fill:url(#linear-gradient-3);}.cls-4{fill:#ffb369;}.cls-5{fill:#4795ea;}</style><linearGradient id="linear-gradient" x1="32" y1="34" x2="32" y2="5" gradientUnits="userSpaceOnUse"><stop offset="0" stop-color="#54a5ff"/><stop offset="1" stop-color="#8ad3fe"/></linearGradient><linearGradient id="linear-gradient-2" x1="32" y1="31" x2="32" y2="8" gradientUnits="userSpaceOnUse"><stop offset="0" stop-color="#d3e6f5"/><stop offset="1" stop-color="#f0f7fc"/></linearGradient><linearGradient id="linear-gradient-3" y1="59" y2="34" xlink:href="#linear-gradient"/></defs><title>Laptop</title><g id="Laptop"><rect class="cls-1" x="11" y="5" width="42" height="29" rx="3" ry="3"/><rect class="cls-2" x="14" y="8" width="36" height="23" rx="1" ry="1"/><path class="cls-3" d="M51.3,59H12.7A3.7,3.7,0,0,1,9,55.3c0-.27,1.69-18,1.68-17.95A3.7,3.7,0,0,1,14.36,34H49.64a3.7,3.7,0,0,1,3.68,3.35C54.61,51,55,55,55,55.3A3.7,3.7,0,0,1,51.3,59Z"/><rect class="cls-4" x="26" y="49" width="12" height="7" rx="1" ry="1"/><path class="cls-5" d="M40,47H24a1,1,0,0,1,0-2H40A1,1,0,0,1,40,47Z"/><path class="cls-5" d="M45,47H44a1,1,0,0,1,0-2h1A1,1,0,0,1,45,47Z"/><path class="cls-5" d="M50,47H49a1,1,0,0,1,0-2h1A1,1,0,0,1,50,47Z"/><path class="cls-5" d="M15,47H14a1,1,0,0,1,0-2h1A1,1,0,0,1,15,47Z"/><path class="cls-5" d="M20,47H19a1,1,0,0,1,0-2h1A1,1,0,0,1,20,47Z"/><path class="cls-5" d="M15,43H14a1,1,0,0,1,0-2h1A1,1,0,0,1,15,43Z"/><path class="cls-5" d="M20,43H19a1,1,0,0,1,0-2h1A1,1,0,0,1,20,43Z"/><path class="cls-5" d="M25,43H24a1,1,0,0,1,0-2h1A1,1,0,0,1,25,43Z"/><path class="cls-5" d="M30,43H29a1,1,0,0,1,0-2h1A1,1,0,0,1,30,43Z"/><path class="cls-5" d="M35,43H34a1,1,0,0,1,0-2h1A1,1,0,0,1,35,43Z"/><path class="cls-5" d="M40,43H39a1,1,0,0,1,0-2h1A1,1,0,0,1,40,43Z"/><path class="cls-5" d="M45,43H44a1,1,0,0,1,0-2h1A1,1,0,0,1,45,43Z"/><path class="cls-5" d="M50,43H49a1,1,0,0,1,0-2h1A1,1,0,0,1,50,43Z"/><path class="cls-5" d="M15,39H14a1,1,0,0,1,0-2h1A1,1,0,0,1,15,39Z"/><path class="cls-5" d="M20,39H19a1,1,0,0,1,0-2h1A1,1,0,0,1,20,39Z"/><path class="cls-5" d="M25,39H24a1,1,0,0,1,0-2h1A1,1,0,0,1,25,39Z"/><path class="cls-5" d="M30,39H29a1,1,0,0,1,0-2h1A1,1,0,0,1,30,39Z"/><path class="cls-5" d="M35,39H34a1,1,0,0,1,0-2h1A1,1,0,0,1,35,39Z"/><path class="cls-5" d="M40,39H39a1,1,0,0,1,0-2h1A1,1,0,0,1,40,39Z"/><path class="cls-5" d="M45,39H44a1,1,0,0,1,0-2h1A1,1,0,0,1,45,39Z"/><path class="cls-5" d="M50,39H49a1,1,0,0,1,0-2h1A1,1,0,0,1,50,39Z"/></g></svg>